<svg id="1" xmlns="http://www.w3.org/2000/svg" preserveAspectRatio="xMinYMin meet" viewBox="0 0 64 64" fill="#000"><rect x="0" y="0" width="64" height="64" fill="#000"></rect><rect x="17" y="26" width="2" height="2" fill="#FFFFFF" opacity="1"></rect><rect x="39" y="17" width="2" height="2" fill="#FFFFFF" opacity="1"></rect><rect x="51" y="39" width="2" height="2" fill="#FFFFFF" opacity="1"></rect><rect x="58" y="28" width="1" height="1" fill="#FFFFFF" opacity="0.2"></rect><rect x="28" y="58" width="1" height="1" fill="#FFFFFF" opacity="0.8"></rect><rect x="46" y="63" width="1" height="1" fill="#FFFFFF" opacity="0.4"></rect><rect x="49" y="22" width="1" height="1" fill="#FFFFFF" opacity="0.4"></rect><rect x="39" y="22" width="1" height="1" fill="#FFFFFF" opacity="1"></rect><rect x="42" y="40" width="1" height="1" fill="#FFFFFF" opacity="0.2"></rect><rect x="20" y="58" width="1" height="1" fill="#FFFFFF" opacity="0.2"></rect><rect x="58" y="30" width="1" height="1" fill="#FFFFFF" opacity="0.2"></rect><rect x="44" y="7" width="1" height="1" fill="#FFFFFF" opacity="0.2"></rect><rect x="52" y="35" width="1" height="1" fill="#FFFFFF" opacity="0.2"></rect><rect x="55" y="8" width="1" height="1" fill="#FFFFFF" opacity="0.2"></rect><rect x="8" y="63" width="1" height="1" fill="#FFFFFF" opacity="0.4"></rect><rect x="51" y="56" width="1" height="1" fill="#FFFFFF" opacity="0.2"></rect><rect x="16" y="37" width="1" height="1" fill="#FFFFFF" opacity="0.4"></rect><rect x="10" y="13" width="1" height="1" fill="#FFFFFF" opacity="0.2"></rect><rect x="45" y="19" width="1" height="1" fill="#FFFFFF" opacity="1"></rect><rect x="46" y="30" width="1" height="1" fill="#FFFFFF" opacity="0.8"></rect><rect x="48" y="22" width="1" height="1" fill="#FFFFFF" opacity="0.2"></rect><rect x="33" y="26" width="1" height="1" fill="#FFFFFF" opacity="0.4"></rect><rect x="38" y="32" width="1" height="1" fill="#FFFFFF" opacity="1"></rect><rect x="49" y="4" width="1" height="1" fill="#FFFFFF" opacity="0.2"></rect><rect x="11" y="15" width="1" height="1" fill="#FFFFFF" opacity="0.4"></rect><rect x="0" y="41" width="1" height="1" fill="#FFFFFF" opacity="0.2"></rect><rect x="27" y="62" width="1" height="1" fill="#FFFFFF" opacity="0.2"></rect><rect x="8" y="31" width="1" height="1" fill="#FFFFFF" opacity="0.4"></rect><rect x="25" y="42" width="1" height="1" fill="#FFFFFF" opacity="0.4"></rect><rect x="58" y="37" width="1" height="1" fill="#FFFFFF" opacity="0.4"></rect><rect x="63" y="27" width="1" height="1" fill="#FFFFFF" opacity="0.4"></rect><rect x="42" y="4" width="1" height="1" fill="#FFFFFF" opacity="0.8"></rect><rect x="20" y="13" width="1" height="1" fill="#FFFFFF" opacity="1"></rect><rect x="41" y="43" width="1" height="1" fill="#FFFFFF" opacity="0.8"></rect><rect x="37" y="55" width="1" height="1" fill="#FFFFFF" opacity="0.2"></rect><rect x="17" y="14" width="1" height="1" fill="#FFFFFF" opacity="0.2"></rect><rect x="44" y="36" width="1" height="1" fill="#FFFFFF" opacity="0.2"></rect><rect x="47" y="28" width="1" height="1" fill="#FFFFFF" opacity="0.2"></rect><rect x="35" y="37" width="1" height="1" fill="#FFFFFF" opacity="0.2"></rect><rect x="18" y="5" width="1" height="1" fill="#FFFFFF" opacity="0.2"></rect><rect x="9" y="21" width="1" height="1" fill="#FFFFFF" opacity="0.2"></rect><rect x="62" y="18" width="1" height="1" fill="#FFFFFF" opacity="0.2"></rect><rect x="32" y="60" width="1" height="1" fill="#FFFFFF" opacity="0.4"></rect><rect x="39" y="36" width="1" height="1" fill="#FFE790" opacity="1"></rect><rect x="42" y="49" width="1" height="1" fill="#FFE790" opacity="1"></rect><rect x="20" y="61" width="1" height="1" fill="#FFE790" opacity="1"></rect><rect x="58" y="47" width="1" height="1" fill="#FFE790" opacity="1"></rect><rect x="44" y="44" width="1" height="1" fill="#FFE790" opacity="1"></rect></svg>