<svg id="19" xmlns="http://www.w3.org/2000/svg" preserveAspectRatio="xMinYMin meet" viewBox="0 0 64 64" fill="#000"><rect x="0" y="0" width="64" height="64" fill="#000"></rect><rect x="24" y="26" width="2" height="2" fill="#FFFFFF" opacity="1"></rect><rect x="29" y="24" width="2" height="2" fill="#FFFFFF" opacity="1"></rect><rect x="29" y="43" width="2" height="2" fill="#FFFFFF" opacity="1"></rect><rect x="36" y="28" width="1" height="1" fill="#FFFFFF" opacity="0.4"></rect><rect x="57" y="36" width="1" height="1" fill="#FFFFFF" opacity="1"></rect><rect x="42" y="8" width="1" height="1" fill="#FFFFFF" opacity="0.2"></rect><rect x="57" y="61" width="1" height="1" fill="#FFFFFF" opacity="0.4"></rect><rect x="18" y="18" width="1" height="1" fill="#FFFFFF" opacity="0.2"></rect><rect x="3" y="2" width="1" height="1" fill="#FFFFFF" opacity="0.2"></rect><rect x="63" y="14" width="1" height="1" fill="#FFFFFF" opacity="0.4"></rect><rect x="63" y="38" width="1" height="1" fill="#FFFFFF" opacity="0.4"></rect><rect x="5" y="22" width="1" height="1" fill="#FFFFFF" opacity="0.4"></rect><rect x="24" y="4" width="1" height="1" fill="#FFFFFF" opacity="0.4"></rect><rect x="4" y="61" width="1" height="1" fill="#FFFFFF" opacity="0.8"></rect><rect x="54" y="27" width="1" height="1" fill="#FFFFFF" opacity="1"></rect><rect x="53" y="55" width="1" height="1" fill="#FFFFFF" opacity="0.8"></rect><rect x="7" y="25" width="1" height="1" fill="#FFFFFF" opacity="0.2"></rect><rect x="1" y="17" width="1" height="1" fill="#FFFFFF" opacity="0.2"></rect><rect x="14" y="12" width="1" height="1" fill="#FFFFFF" opacity="0.2"></rect><rect x="4" y="34" width="1" height="1" fill="#FFFFFF" opacity="0.2"></rect><rect x="26" y="21" width="1" height="1" fill="#FFFFFF" opacity="0.2"></rect><rect x="34" y="21" width="1" height="1" fill="#FFFFFF" opacity="0.2"></rect><rect x="23" y="58" width="1" height="1" fill="#FFFFFF" opacity="0.2"></rect><rect x="19" y="29" width="1" height="1" fill="#FFFFFF" opacity="0.2"></rect><rect x="45" y="22" width="1" height="1" fill="#FFFFFF" opacity="0.4"></rect><rect x="11" y="38" width="1" height="1" fill="#FFFFFF" opacity="0.2"></rect><rect x="4" y="40" width="1" height="1" fill="#FFFFFF" opacity="0.8"></rect><rect x="58" y="57" width="1" height="1" fill="#FFFFFF" opacity="0.2"></rect><rect x="60" y="5" width="1" height="1" fill="#FFFFFF" opacity="0.4"></rect><rect x="8" y="2" width="1" height="1" fill="#FFFFFF" opacity="0.2"></rect><rect x="5" y="59" width="1" height="1" fill="#FFFFFF" opacity="0.2"></rect><rect x="60" y="9" width="1" height="1" fill="#FFFFFF" opacity="0.2"></rect><rect x="51" y="52" width="1" height="1" fill="#FFFFFF" opacity="0.8"></rect><rect x="58" y="60" width="1" height="1" fill="#FFFFFF" opacity="1"></rect><rect x="5" y="14" width="1" height="1" fill="#FFFFFF" opacity="0.4"></rect><rect x="10" y="49" width="1" height="1" fill="#7DD0FF" opacity="1"></rect><rect x="11" y="36" width="1" height="1" fill="#FFE790" opacity="1"></rect></svg>