<svg id="2" xmlns="http://www.w3.org/2000/svg" preserveAspectRatio="xMinYMin meet" viewBox="0 0 64 64" fill="#000"><rect x="0" y="0" width="64" height="64" fill="#000"></rect><rect x="39" y="26" width="2" height="2" fill="#FFFFFF" opacity="1"></rect><rect x="51" y="39" width="2" height="2" fill="#FFFFFF" opacity="1"></rect><rect x="44" y="44" width="2" height="2" fill="#FFFFFF" opacity="1"></rect><rect x="11" y="44" width="2" height="2" fill="#FFFFFF" opacity="1"></rect><rect x="59" y="28" width="1" height="1" fill="#FFFFFF" opacity="0.8"></rect><rect x="46" y="59" width="1" height="1" fill="#FFFFFF" opacity="0.4"></rect><rect x="60" y="37" width="1" height="1" fill="#FFFFFF" opacity="0.4"></rect><rect x="53" y="33" width="1" height="1" fill="#FFFFFF" opacity="1"></rect><rect x="47" y="30" width="1" height="1" fill="#FFFFFF" opacity="0.2"></rect><rect x="29" y="55" width="1" height="1" fill="#FFFFFF" opacity="0.2"></rect><rect x="24" y="26" width="1" height="1" fill="#FFFFFF" opacity="0.2"></rect><rect x="55" y="32" width="1" height="1" fill="#FFFFFF" opacity="0.2"></rect><rect x="54" y="22" width="1" height="1" fill="#FFFFFF" opacity="0.2"></rect><rect x="43" y="3" width="1" height="1" fill="#FFFFFF" opacity="0.2"></rect><rect x="10" y="15" width="1" height="1" fill="#FFFFFF" opacity="0.4"></rect><rect x="28" y="4" width="1" height="1" fill="#FFFFFF" opacity="0.2"></rect><rect x="5" y="4" width="1" height="1" fill="#FFFFFF" opacity="0.4"></rect><rect x="56" y="51" width="1" height="1" fill="#FFFFFF" opacity="0.2"></rect><rect x="34" y="23" width="1" height="1" fill="#FFFFFF" opacity="1"></rect><rect x="42" y="54" width="1" height="1" fill="#FFFFFF" opacity="0.8"></rect><rect x="9" y="33" width="1" height="1" fill="#FFFFFF" opacity="0.2"></rect><rect x="52" y="6" width="1" height="1" fill="#FFFFFF" opacity="0.4"></rect><rect x="33" y="33" width="1" height="1" fill="#FFFFFF" opacity="1"></rect><rect x="49" y="25" width="1" height="1" fill="#FFFFFF" opacity="0.2"></rect><rect x="22" y="39" width="1" height="1" fill="#FFFFFF" opacity="0.4"></rect><rect x="13" y="6" width="1" height="1" fill="#FFFFFF" opacity="0.2"></rect><rect x="40" y="17" width="1" height="1" fill="#FFFFFF" opacity="0.2"></rect><rect x="0" y="11" width="1" height="1" fill="#FFFFFF" opacity="0.4"></rect><rect x="45" y="53" width="1" height="1" fill="#FFFFFF" opacity="0.4"></rect><rect x="44" y="45" width="1" height="1" fill="#FFFFFF" opacity="0.4"></rect><rect x="0" y="14" width="1" height="1" fill="#FFFFFF" opacity="0.4"></rect><rect x="46" y="4" width="1" height="1" fill="#FFFFFF" opacity="0.8"></rect><rect x="35" y="0" width="1" height="1" fill="#FFFFFF" opacity="1"></rect><rect x="57" y="60" width="1" height="1" fill="#FFFFFF" opacity="0.8"></rect><rect x="47" y="7" width="1" height="1" fill="#FFFFFF" opacity="0.2"></rect><rect x="6" y="52" width="1" height="1" fill="#FFFFFF" opacity="0.2"></rect><rect x="43" y="4" width="1" height="1" fill="#FFFFFF" opacity="0.2"></rect><rect x="63" y="16" width="1" height="1" fill="#FFFFFF" opacity="0.2"></rect><rect x="27" y="60" width="1" height="1" fill="#FFFFFF" opacity="0.2"></rect><rect x="54" y="0" width="1" height="1" fill="#FFFFFF" opacity="0.2"></rect><rect x="35" y="38" width="1" height="1" fill="#FFFFFF" opacity="0.2"></rect><rect x="4" y="36" width="1" height="1" fill="#FFFFFF" opacity="0.2"></rect><rect x="25" y="20" width="1" height="1" fill="#FFFFFF" opacity="0.4"></rect><rect x="23" y="46" width="1" height="1" fill="#FFFFFF" opacity="0.2"></rect><rect x="55" y="50" width="1" height="1" fill="#FFFFFF" opacity="0.8"></rect><rect x="7" y="29" width="1" height="1" fill="#FFFFFF" opacity="0.2"></rect><rect x="18" y="51" width="1" height="1" fill="#FFFFFF" opacity="0.4"></rect><rect x="40" y="7" width="1" height="1" fill="#FFFFFF" opacity="0.2"></rect><rect x="50" y="47" width="1" height="1" fill="#FFFFFF" opacity="0.2"></rect><rect x="0" y="39" width="1" height="1" fill="#FFFFFF" opacity="0.2"></rect><rect x="30" y="30" width="1" height="1" fill="#FFFFFF" opacity="0.8"></rect><rect x="21" y="36" width="1" height="1" fill="#FFFFFF" opacity="1"></rect><rect x="36" y="49" width="1" height="1" fill="#7DD0FF" opacity="1"></rect><rect x="15" y="36" width="1" height="1" fill="#7DD0FF" opacity="1"></rect><rect x="0" y="0" width="1" height="1" fill="#7DD0FF" opacity="1"></rect></svg>