<svg id="3" xmlns="http://www.w3.org/2000/svg" preserveAspectRatio="xMinYMin meet" viewBox="0 0 64 64" fill="#000"><rect x="0" y="0" width="64" height="64" fill="#000"></rect><rect x="51" y="26" width="2" height="2" fill="#FFFFFF" opacity="1"></rect><rect x="44" y="51" width="2" height="2" fill="#FFFFFF" opacity="1"></rect><rect x="11" y="28" width="1" height="1" fill="#FFFFFF" opacity="0.4"></rect><rect x="36" y="11" width="1" height="1" fill="#FFFFFF" opacity="0.4"></rect><rect x="63" y="50" width="1" height="1" fill="#FFFFFF" opacity="1"></rect><rect x="44" y="20" width="1" height="1" fill="#FFFFFF" opacity="0.2"></rect><rect x="40" y="30" width="1" height="1" fill="#FFFFFF" opacity="0.2"></rect><rect x="42" y="18" width="1" height="1" fill="#FFFFFF" opacity="0.2"></rect><rect x="6" y="46" width="1" height="1" fill="#FFFFFF" opacity="0.2"></rect><rect x="3" y="16" width="1" height="1" fill="#FFFFFF" opacity="0.2"></rect><rect x="3" y="48" width="1" height="1" fill="#FFFFFF" opacity="0.2"></rect><rect x="59" y="34" width="1" height="1" fill="#FFFFFF" opacity="0.4"></rect><rect x="16" y="6" width="1" height="1" fill="#FFFFFF" opacity="0.2"></rect><rect x="60" y="17" width="1" height="1" fill="#FFFFFF" opacity="0.4"></rect><rect x="47" y="40" width="1" height="1" fill="#FFFFFF" opacity="0.2"></rect><rect x="36" y="58" width="1" height="1" fill="#FFFFFF" opacity="1"></rect><rect x="60" y="38" width="1" height="1" fill="#FFFFFF" opacity="0.8"></rect><rect x="57" y="29" width="1" height="1" fill="#FFFFFF" opacity="0.2"></rect><rect x="40" y="30" width="1" height="1" fill="#FFFFFF" opacity="0.4"></rect><rect x="50" y="46" width="1" height="1" fill="#FFFFFF" opacity="1"></rect><rect x="18" y="52" width="1" height="1" fill="#FFFFFF" opacity="0.2"></rect><rect x="27" y="37" width="1" height="1" fill="#FFFFFF" opacity="0.4"></rect><rect x="41" y="13" width="1" height="1" fill="#FFFFFF" opacity="0.2"></rect><rect x="26" y="41" width="1" height="1" fill="#FFFFFF" opacity="0.2"></rect><rect x="38" y="51" width="1" height="1" fill="#FFFFFF" opacity="0.4"></rect><rect x="42" y="15" width="1" height="1" fill="#FFFFFF" opacity="0.4"></rect><rect x="10" y="31" width="1" height="1" fill="#FFFFFF" opacity="0.4"></rect><rect x="50" y="49" width="1" height="1" fill="#FFFFFF" opacity="0.4"></rect><rect x="1" y="13" width="1" height="1" fill="#FFFFFF" opacity="0.8"></rect><rect x="15" y="28" width="1" height="1" fill="#FFFFFF" opacity="1"></rect><rect x="49" y="21" width="1" height="1" fill="#FFFFFF" opacity="0.8"></rect><rect x="38" y="2" width="1" height="1" fill="#FFFFFF" opacity="0.2"></rect><rect x="46" y="24" width="1" height="1" fill="#FFFFFF" opacity="0.2"></rect><rect x="6" y="48" width="1" height="1" fill="#FFFFFF" opacity="0.2"></rect><rect x="29" y="2" width="1" height="1" fill="#FFFFFF" opacity="0.2"></rect><rect x="9" y="38" width="1" height="1" fill="#FFFFFF" opacity="0.2"></rect><rect x="63" y="55" width="1" height="1" fill="#FFFFFF" opacity="0.2"></rect><rect x="35" y="14" width="1" height="1" fill="#FFFFFF" opacity="0.2"></rect><rect x="27" y="31" width="1" height="1" fill="#FFFFFF" opacity="0.2"></rect><rect x="60" y="61" width="1" height="1" fill="#FFFFFF" opacity="0.4"></rect><rect x="42" y="34" width="1" height="1" fill="#FFFFFF" opacity="0.2"></rect><rect x="5" y="6" width="1" height="1" fill="#FFFFFF" opacity="0.8"></rect><rect x="6" y="36" width="1" height="1" fill="#FFE790" opacity="1"></rect><rect x="3" y="52" width="1" height="1" fill="#FFE790" opacity="1"></rect></svg>