<svg id="4" xmlns="http://www.w3.org/2000/svg" preserveAspectRatio="xMinYMin meet" viewBox="0 0 64 64" fill="#000"><rect x="0" y="0" width="64" height="64" fill="#000"></rect><rect x="44" y="26" width="2" height="2" fill="#FFFFFF" opacity="1"></rect><rect x="11" y="44" width="2" height="2" fill="#FFFFFF" opacity="1"></rect><rect x="21" y="28" width="1" height="1" fill="#FFFFFF" opacity="0.4"></rect><rect x="44" y="21" width="1" height="1" fill="#FFFFFF" opacity="1"></rect><rect x="34" y="46" width="1" height="1" fill="#FFFFFF" opacity="0.2"></rect><rect x="8" y="26" width="1" height="1" fill="#FFFFFF" opacity="0.2"></rect><rect x="12" y="50" width="1" height="1" fill="#FFFFFF" opacity="0.2"></rect><rect x="34" y="32" width="1" height="1" fill="#FFFFFF" opacity="0.2"></rect><rect x="52" y="15" width="1" height="1" fill="#FFFFFF" opacity="0.2"></rect><rect x="55" y="38" width="1" height="1" fill="#FFFFFF" opacity="0.2"></rect><rect x="25" y="54" width="1" height="1" fill="#FFFFFF" opacity="0.4"></rect><rect x="39" y="38" width="1" height="1" fill="#FFFFFF" opacity="0.2"></rect><rect x="54" y="25" width="1" height="1" fill="#FFFFFF" opacity="0.4"></rect><rect x="27" y="11" width="1" height="1" fill="#FFFFFF" opacity="0.2"></rect><rect x="36" y="5" width="1" height="1" fill="#FFFFFF" opacity="1"></rect><rect x="63" y="36" width="1" height="1" fill="#FFFFFF" opacity="0.8"></rect><rect x="38" y="9" width="1" height="1" fill="#FFFFFF" opacity="0.2"></rect><rect x="17" y="25" width="1" height="1" fill="#FFFFFF" opacity="0.4"></rect><rect x="59" y="43" width="1" height="1" fill="#FFFFFF" opacity="1"></rect><rect x="5" y="10" width="1" height="1" fill="#FFFFFF" opacity="0.2"></rect><rect x="2" y="15" width="1" height="1" fill="#FFFFFF" opacity="0.4"></rect><rect x="53" y="6" width="1" height="1" fill="#FFFFFF" opacity="0.2"></rect><rect x="57" y="10" width="1" height="1" fill="#FFFFFF" opacity="0.2"></rect><rect x="10" y="19" width="1" height="1" fill="#FFFFFF" opacity="0.4"></rect><rect x="47" y="19" width="1" height="1" fill="#FFFFFF" opacity="0.4"></rect><rect x="20" y="34" width="1" height="1" fill="#FFFFFF" opacity="0.4"></rect><rect x="8" y="39" width="1" height="1" fill="#FFFFFF" opacity="0.4"></rect><rect x="12" y="7" width="1" height="1" fill="#FFFFFF" opacity="0.8"></rect><rect x="2" y="17" width="1" height="1" fill="#FFFFFF" opacity="1"></rect><rect x="32" y="28" width="1" height="1" fill="#FFFFFF" opacity="0.8"></rect><rect x="52" y="7" width="1" height="1" fill="#FFFFFF" opacity="0.2"></rect><rect x="2" y="44" width="1" height="1" fill="#FFFFFF" opacity="0.2"></rect><rect x="48" y="14" width="1" height="1" fill="#FFFFFF" opacity="0.2"></rect><rect x="42" y="6" width="1" height="1" fill="#FFFFFF" opacity="0.2"></rect><rect x="2" y="19" width="1" height="1" fill="#FFFFFF" opacity="0.2"></rect><rect x="36" y="2" width="1" height="1" fill="#FFFFFF" opacity="0.2"></rect><rect x="7" y="30" width="1" height="1" fill="#FFFFFF" opacity="0.2"></rect><rect x="56" y="56" width="1" height="1" fill="#FFFFFF" opacity="0.2"></rect><rect x="42" y="14" width="1" height="1" fill="#FFFFFF" opacity="0.4"></rect><rect x="58" y="51" width="1" height="1" fill="#FFFFFF" opacity="0.2"></rect><rect x="7" y="47" width="1" height="1" fill="#FFFFFF" opacity="0.8"></rect><rect x="7" y="0" width="1" height="1" fill="#FFFFFF" opacity="0.2"></rect><rect x="16" y="29" width="1" height="1" fill="#FFFFFF" opacity="0.4"></rect><rect x="61" y="59" width="1" height="1" fill="#FFFFFF" opacity="0.2"></rect><rect x="15" y="27" width="1" height="1" fill="#FFFFFF" opacity="0.2"></rect><rect x="10" y="17" width="1" height="1" fill="#FFFFFF" opacity="0.2"></rect><rect x="13" y="24" width="1" height="1" fill="#FFFFFF" opacity="0.8"></rect><rect x="5" y="7" width="1" height="1" fill="#FFFFFF" opacity="1"></rect><rect x="40" y="49" width="1" height="1" fill="#FFFFFF" opacity="0.4"></rect><rect x="6" y="42" width="1" height="1" fill="#FFFFFF" opacity="0.2"></rect><rect x="30" y="26" width="1" height="1" fill="#FFFFFF" opacity="0.4"></rect><rect x="48" y="19" width="1" height="1" fill="#FFFFFF" opacity="0.4"></rect><rect x="58" y="17" width="1" height="1" fill="#FFFFFF" opacity="0.8"></rect><rect x="56" y="33" width="1" height="1" fill="#FFFFFF" opacity="0.2"></rect><rect x="58" y="61" width="1" height="1" fill="#FFFFFF" opacity="0.4"></rect><rect x="58" y="53" width="1" height="1" fill="#FFFFFF" opacity="0.8"></rect><rect x="21" y="50" width="1" height="1" fill="#FFFFFF" opacity="0.2"></rect><rect x="63" y="23" width="1" height="1" fill="#FFFFFF" opacity="0.2"></rect><rect x="36" y="5" width="1" height="1" fill="#FFFFFF" opacity="0.4"></rect><rect x="58" y="31" width="1" height="1" fill="#FFFFFF" opacity="0.2"></rect><rect x="61" y="27" width="1" height="1" fill="#FFFFFF" opacity="1"></rect><rect x="35" y="31" width="1" height="1" fill="#FFFFFF" opacity="0.4"></rect><rect x="43" y="47" width="1" height="1" fill="#FFFFFF" opacity="1"></rect><rect x="55" y="57" width="1" height="1" fill="#FFFFFF" opacity="0.4"></rect><rect x="40" y="3" width="1" height="1" fill="#FFFFFF" opacity="0.2"></rect><rect x="58" y="31" width="1" height="1" fill="#FFFFFF" opacity="0.2"></rect></svg>