<svg id="5" xmlns="http://www.w3.org/2000/svg" preserveAspectRatio="xMinYMin meet" viewBox="0 0 64 64" fill="#000"><rect x="0" y="0" width="64" height="64" fill="#000"></rect><rect x="11" y="26" width="2" height="2" fill="#FFFFFF" opacity="1"></rect><rect x="44" y="11" width="2" height="2" fill="#FFFFFF" opacity="1"></rect><rect x="27" y="51" width="2" height="2" fill="#FFFFFF" opacity="1"></rect><rect x="3" y="9" width="2" height="2" fill="#FFFFFF" opacity="1"></rect><rect x="27" y="28" width="1" height="1" fill="#FFFFFF" opacity="1"></rect><rect x="61" y="27" width="1" height="1" fill="#FFFFFF" opacity="0.2"></rect><rect x="26" y="38" width="1" height="1" fill="#FFFFFF" opacity="0.2"></rect><rect x="57" y="19" width="1" height="1" fill="#FFFFFF" opacity="0.2"></rect><rect x="59" y="32" width="1" height="1" fill="#FFFFFF" opacity="0.2"></rect><rect x="19" y="62" width="1" height="1" fill="#FFFFFF" opacity="0.2"></rect><rect x="0" y="4" width="1" height="1" fill="#FFFFFF" opacity="0.2"></rect><rect x="2" y="57" width="1" height="1" fill="#FFFFFF" opacity="0.4"></rect><rect x="45" y="20" width="1" height="1" fill="#FFFFFF" opacity="0.2"></rect><rect x="24" y="63" width="1" height="1" fill="#FFFFFF" opacity="0.4"></rect><rect x="3" y="62" width="1" height="1" fill="#FFFFFF" opacity="0.2"></rect><rect x="6" y="51" width="1" height="1" fill="#FFFFFF" opacity="1"></rect><rect x="4" y="13" width="1" height="1" fill="#FFFFFF" opacity="0.8"></rect><rect x="42" y="19" width="1" height="1" fill="#FFFFFF" opacity="0.2"></rect><rect x="15" y="48" width="1" height="1" fill="#FFFFFF" opacity="0.4"></rect><rect x="53" y="42" width="1" height="1" fill="#FFFFFF" opacity="1"></rect><rect x="28" y="14" width="1" height="1" fill="#FFFFFF" opacity="0.2"></rect><rect x="33" y="12" width="1" height="1" fill="#FFFFFF" opacity="0.4"></rect><rect x="11" y="31" width="1" height="1" fill="#FFFFFF" opacity="0.2"></rect><rect x="5" y="17" width="1" height="1" fill="#FFFFFF" opacity="0.2"></rect><rect x="12" y="58" width="1" height="1" fill="#FFFFFF" opacity="0.4"></rect><rect x="21" y="8" width="1" height="1" fill="#FFFFFF" opacity="0.4"></rect><rect x="44" y="13" width="1" height="1" fill="#FFFFFF" opacity="0.4"></rect><rect x="34" y="29" width="1" height="1" fill="#FFFFFF" opacity="0.4"></rect><rect x="8" y="0" width="1" height="1" fill="#FFFFFF" opacity="0.8"></rect><rect x="12" y="35" width="1" height="1" fill="#FFFFFF" opacity="1"></rect><rect x="34" y="25" width="1" height="1" fill="#FFFFFF" opacity="0.8"></rect><rect x="52" y="50" width="1" height="1" fill="#FFFFFF" opacity="0.2"></rect><rect x="55" y="35" width="1" height="1" fill="#FFFFFF" opacity="0.2"></rect><rect x="25" y="5" width="1" height="1" fill="#FFFFFF" opacity="0.2"></rect><rect x="39" y="44" width="1" height="1" fill="#FFFFFF" opacity="0.2"></rect><rect x="54" y="16" width="1" height="1" fill="#FFFFFF" opacity="0.2"></rect><rect x="27" y="42" width="1" height="1" fill="#FFFFFF" opacity="0.2"></rect><rect x="36" y="37" width="1" height="1" fill="#FFFFFF" opacity="0.2"></rect><rect x="63" y="38" width="1" height="1" fill="#FFFFFF" opacity="0.2"></rect><rect x="38" y="14" width="1" height="1" fill="#FFFFFF" opacity="0.4"></rect><rect x="17" y="40" width="1" height="1" fill="#FFFFFF" opacity="0.2"></rect><rect x="59" y="0" width="1" height="1" fill="#FFFFFF" opacity="0.8"></rect><rect x="5" y="52" width="1" height="1" fill="#FFFFFF" opacity="0.2"></rect><rect x="2" y="60" width="1" height="1" fill="#FFFFFF" opacity="0.4"></rect><rect x="53" y="55" width="1" height="1" fill="#FFFFFF" opacity="0.2"></rect><rect x="57" y="57" width="1" height="1" fill="#FFFFFF" opacity="0.2"></rect><rect x="10" y="45" width="1" height="1" fill="#FFFFFF" opacity="0.2"></rect><rect x="47" y="51" width="1" height="1" fill="#FFFFFF" opacity="0.8"></rect><rect x="20" y="28" width="1" height="1" fill="#FFFFFF" opacity="1"></rect><rect x="8" y="7" width="1" height="1" fill="#FFFFFF" opacity="0.4"></rect><rect x="12" y="43" width="1" height="1" fill="#FFFFFF" opacity="0.2"></rect><rect x="2" y="44" width="1" height="1" fill="#FFFFFF" opacity="0.4"></rect><rect x="32" y="20" width="1" height="1" fill="#FFFFFF" opacity="0.4"></rect><rect x="52" y="39" width="1" height="1" fill="#FFFFFF" opacity="0.8"></rect><rect x="2" y="55" width="1" height="1" fill="#FFFFFF" opacity="0.2"></rect><rect x="48" y="57" width="1" height="1" fill="#FFFFFF" opacity="0.4"></rect><rect x="42" y="2" width="1" height="1" fill="#FFFFFF" opacity="0.8"></rect><rect x="2" y="12" width="1" height="1" fill="#FFFFFF" opacity="0.2"></rect><rect x="36" y="9" width="1" height="1" fill="#FFFFFF" opacity="0.2"></rect><rect x="7" y="11" width="1" height="1" fill="#FFFFFF" opacity="0.4"></rect><rect x="56" y="52" width="1" height="1" fill="#FFFFFF" opacity="0.2"></rect><rect x="42" y="24" width="1" height="1" fill="#FFFFFF" opacity="1"></rect><rect x="58" y="27" width="1" height="1" fill="#FFFFFF" opacity="0.4"></rect><rect x="7" y="38" width="1" height="1" fill="#FFFFFF" opacity="1"></rect><rect x="7" y="16" width="1" height="1" fill="#FFFFFF" opacity="0.4"></rect><rect x="16" y="21" width="1" height="1" fill="#FFFFFF" opacity="0.2"></rect><rect x="61" y="55" width="1" height="1" fill="#FFFFFF" opacity="0.2"></rect><rect x="15" y="2" width="1" height="1" fill="#FFFFFF" opacity="0.4"></rect><rect x="45" y="36" width="1" height="1" fill="#FFE790" opacity="1"></rect></svg>